<?xml version="1.0" encoding="utf-8"?>
<!-- Generator: Adobe Illustrator 16.0.0, SVG Export Plug-In . SVG Version: 6.00 Build 0)  -->
<!DOCTYPE svg PUBLIC "-//W3C//DTD SVG 1.1//EN" "http://www.w3.org/Graphics/SVG/1.1/DTD/svg11.dtd">
<svg version="1.1" id="Layer_1" xmlns="http://www.w3.org/2000/svg" xmlns:xlink="http://www.w3.org/1999/xlink" x="0px" y="0px"
	 width="128px" height="128px" viewBox="0.5 128.5 128 128" enable-background="new 0.5 128.5 128 128" xml:space="preserve">
<polyline fill="#E5E9E9" points="29.455,178.375 83.33,124.5 128.5,124.5 128.5,169.84 74.709,223.63 "/>
<polyline fill="#FAFBFB" points="36.315,204.407 36.498,180.498 92.5,124.5 120.5,124.5 "/>
<path fill="#14426F" d="M12.5,240.5c72,24,80-7.667,116-7.667V220.5c-36,0-44,36-116,16V240.5z"/>
<path fill="#BDC7C7" d="M28.872,197.023L28.008,182.5l0.078,1.311c-0.27-2.342,0.155-4.222,1.369-5.436
	c4.528-4.527,18.331,1.93,30.828,14.427c12.496,12.497,18.955,26.3,14.426,30.828c-1.133,1.132-2.844,1.577-4.971,1.413l0.32,0.02
	l-13.815-0.887"/>
<path fill="#E5E9E9" d="M42.625,209.375l-6.31-4.968l2.67-26.398c3.16,1.115,11.774,5.241,15.285,9.314"/>
<ellipse transform="matrix(-0.7071 0.7071 -0.7071 -0.7071 207.8387 362.3401)" fill="#14426F" cx="28.873" cy="224.217" rx="5.306" ry="12.001"/>
<path fill="#2267B2" d="M21.136,221.971L12.5,232.5v8h8l10.53-8.636c1.197-1.198-0.028-4.364-2.736-7.073
	c-2.708-2.708-5.875-3.934-7.072-2.734"/>
<path fill="#1C75BC" d="M23.214,204.975l-3.417,11.705c0.13-0.367,0.327-0.688,0.592-0.955c2.072-2.07,7.55,0.049,12.237,4.734
	c4.686,4.688,6.806,10.165,4.734,12.236c-0.252,0.253-0.555,0.443-0.901,0.574l-0.292,0.084c0,0,11.93-3.479,11.929-3.479
	c0.568-0.195,1.063-0.496,1.471-0.902c3.108-3.107-0.071-11.324-7.101-18.354c-7.029-7.03-15.248-10.21-18.356-7.103
	c-0.508,0.508-0.848,1.153-1.031,1.907"/>
<path fill="#5688C7" d="M58.331,223.038l-8.764,5.937c3.108-3.107-0.071-11.326-7.101-18.354c-7.029-7.03-15.248-10.21-18.356-7.104
	c0,0,5.344-8.008,5.344-8.009c0.167-0.274,0.365-0.526,0.592-0.755c3.453-3.453,12.585,0.078,20.396,7.891
	C58.253,210.453,61.784,219.585,58.331,223.038c-0.361,0.36-0.785,0.646-1.263,0.858"/>
</svg>
