<?xml version="1.0" encoding="utf-8"?>
<!-- Generator: Adobe Illustrator 16.0.0, SVG Export Plug-In . SVG Version: 6.00 Build 0)  -->
<!DOCTYPE svg PUBLIC "-//W3C//DTD SVG 1.1//EN" "http://www.w3.org/Graphics/SVG/1.1/DTD/svg11.dtd">
<svg version="1.1" xmlns="http://www.w3.org/2000/svg" xmlns:xlink="http://www.w3.org/1999/xlink" x="0px" y="0px" width="128px"
	 height="128px" viewBox="0.5 128.5 128 128" enable-background="new 0.5 128.5 128 128" xml:space="preserve">
<g id="canvas">
	<path fill="#D0D0CF" d="M104.5,225.5c0,6.627-5.373,12-12,12h-68c-6.627,0-12-5.373-12-12v-68c0-6.627,5.373-12,12-12h68
		c6.627,0,12,5.373,12,12V225.5z"/>
	<path fill="#F2F2F2" d="M104.5,220.5c0,6.627-5.373,12-12,12h-68c-6.627,0-12-5.373-12-12v-68c0-6.627,5.373-12,12-12h68
		c6.627,0,12,5.373,12,12V220.5z"/>
</g>
<g id="tick">
	<g>
		<g>
			<g>
				<g>
					<g opacity="0.7">
						<g>
							<path fill="#20B167" d="M20.592,199.319c0,0-2.222,1.027,0.921-1.44l2.352-2.185l1.468-1.923l1.928-1.323
								c0,0,0.371,0.196,2.208,1.959c0.918,0.881,2.204,2.153,3.992,3.989c0.889,0.923,1.908,1.982,3.077,3.197
								c1.144,1.208,2.434,2.572,3.889,4.11c0,0,0.333,0.111,0.69,0.179c0.363,0.063,0.705,0.076,0.884-0.054
								c0.104-0.391,0.168-0.632,0.273-0.79c0,0,0.061-0.069,0.168-0.191c0.506-0.707,1.121-1.567,1.827-2.556
								c0.782-1.061,1.636-2.281,2.629-3.57c3.898-5.21,9.361-12.021,15.38-18.583c6.017-6.562,12.542-12.908,18.145-17.455
								c1.349-1.187,2.722-2.181,3.933-3.116c1.226-0.917,2.329-1.742,3.286-2.458c2.001-1.328,3.418-2.188,4.04-2.438
								c0,0-0.559,0.383-1.541,1.058c-0.981,0.676-2.408,1.622-4.012,2.892c-3.288,2.454-7.57,5.902-11.688,9.646
								c-8.3,7.431-15.89,16.012-16.503,17.255c0,0,0.434-0.474,1.198-1.307c0.777-0.822,1.832-2.044,3.211-3.43
								c2.705-2.815,6.411-6.521,10.391-10.087c7.919-7.194,17.016-13.597,18.729-13.925c0,0-0.513,0.353-1.416,0.973
								c-0.922,0.601-2.158,1.557-3.652,2.713c-1.485,1.165-3.287,2.474-5.074,4.053c-1.805,1.561-3.803,3.185-5.66,4.984
								c-7.637,7.014-14.668,15.216-15.142,17.094c0,0,0.387-0.415,1.071-1.148c0.69-0.727,1.646-1.795,2.886-3.016
								c1.232-1.227,2.647-2.689,4.239-4.214c1.617-1.502,3.326-3.143,5.124-4.739c1.831-1.565,3.655-3.178,5.477-4.643
								c1.846-1.44,3.619-2.805,5.223-4.002c3.333-2.254,5.897-3.942,7.031-4.251c0,0-0.374,0.218-0.933,0.597
								c-0.55,0.391-1.299,0.924-2.094,1.489c-1.574,1.153-3.348,2.442-3.955,3.146c0.001,0,0.672-0.452,1.374-0.864
								c0.693-0.421,1.387-0.842,1.387-0.842s-0.999,0.813-1.998,1.627c-0.964,0.856-1.928,1.712-1.928,1.712l-2.452,1.733
								c0,0,1.684-1.16,3.454-2.305c0.875-0.585,1.807-1.124,2.57-1.511c0.757-0.394,1.334-0.647,1.532-0.628
								c0,0,0.592-0.716-0.183-0.247c-0.388,0.233-1.117,0.765-2.435,1.83c-1.267,1.124-3.12,2.787-5.724,5.306
								c0,0-1.108,0.868-3.139,2.615c-0.505,0.44-1.069,0.933-1.691,1.476c-0.607,0.559-1.254,1.188-1.957,1.867
								c-1.396,1.367-3.032,2.925-4.728,4.813c-0.853,0.94-1.752,1.932-2.698,2.974c-0.921,1.064-1.859,2.204-2.841,3.393
								c-0.991,1.182-1.984,2.446-2.987,3.784c-1.008,1.334-2.064,2.711-3.084,4.191c-2.076,2.935-4.205,6.134-6.292,9.626
								c-0.526,0.869-1.057,1.753-1.568,2.664c-0.311,0.535-0.624,1.074-0.939,1.616c-0.335,0.573-0.679,1.156-1.016,1.774
								c-1.363,2.437-2.841,5.173-4.425,8.232c-0.049,0.002-0.095,0.057-0.147,0.015l-0.162-0.167l-0.326-0.338l-0.665-0.689
								c-0.458-0.475-0.918-0.952-1.383-1.434c-0.983-1.021-1.98-2.057-2.991-3.106c-1.093-1.14-2.2-2.293-3.321-3.462
								c-0.333-0.355-0.479-0.479-0.698-0.69l-0.617-0.586c-0.414-0.39-0.831-0.783-1.25-1.178
								C27.909,205.854,24.345,202.61,20.592,199.319z"/>
							<path fill="none" stroke="#95DAB6" stroke-width="0.025" d="M27.722,191.423c0,0,2.212,2.345,5.81,6.16
								c1.786,1.92,3.916,4.21,6.287,6.76c0.295,0.32,0.594,0.644,0.896,0.972c0.102,0.115,0.076,0.07,0.109,0.099l0.06,0.038
								l0.117,0.071c0.153,0.091,0.294,0.165,0.421,0.222c0.252,0.1,0.452,0.187,0.58,0.088c0.088-0.395,0.142-0.723,0.139-0.951
								c-0.002-0.114-0.016-0.206-0.042-0.276l-0.011-0.025l-0.006-0.012l0.097-0.161l0.434-0.713l0.885-1.42
								c0,0,0.412-0.573,1.138-1.583c0.717-1.017,1.786-2.442,3.077-4.164c1.271-1.736,2.861-3.698,4.529-5.854
								c1.742-2.103,3.548-4.411,5.517-6.645c3.832-4.545,8.049-8.979,11.517-12.484c1.731-1.755,3.351-3.215,4.585-4.391
								c1.233-1.176,2.181-1.985,2.671-2.353c0,0,0.618-0.546,1.638-1.447c1.043-0.877,2.407-2.181,4.134-3.472
								c1.71-1.304,3.569-2.8,5.523-4.116c1.971-1.301,3.927-2.534,5.638-3.513"/>
							<path fill="none" stroke="#20B167" stroke-width="0.025" d="M57.859,183.902c-1.359,1.243-6.282,7.241-10.6,13.121
								c-1.085,1.466-2.135,2.922-3.085,4.294c-0.478,0.684-0.937,1.342-1.371,1.963c-0.378,0.561-0.998,1.473-0.823,1.226
								c-0.006,0.046-0.01,0.075-0.01,0.075c-0.017-0.001-0.009,0.048-0.026,0.207c-0.031,0.172-0.176,0.355-0.625,0.247
								l-0.042-0.011l-0.022-0.006l-0.011-0.003l-0.053-0.055l-0.423-0.443l-0.847-0.881c-0.566-0.583-1.128-1.162-1.684-1.734
								c-1.118-1.135-2.206-2.239-3.23-3.279c-4.116-4.143-7.285-7.2-7.285-7.2"/>
							<path fill="none" stroke="#20B167" stroke-width="0.025" d="M60.923,185.321c0-0.001,5.282-5.987,11.691-12.1
								c1.633-1.495,3.306-3.027,4.937-4.521c1.666-1.456,3.336-2.825,4.855-4.104c0.753-0.646,1.501-1.236,2.226-1.769
								c0.718-0.539,1.39-1.044,2.007-1.507c1.241-0.918,2.251-1.671,2.984-2.149"/>
							<path fill="none" stroke="#95DAB6" stroke-width="0.025" d="M58.796,195.084c0,0,1.483-1.697,3.739-4.278
								c1.159-1.262,2.515-2.739,3.979-4.333c1.506-1.55,3.122-3.214,4.755-4.894c1.686-1.621,3.388-3.259,5.011-4.819
								c1.678-1.493,3.273-2.914,4.687-4.172c2.892-2.432,5.099-4.144,5.729-4.559"/>
						</g>
					</g>
				</g>
			</g>
		</g>
	</g>
	<g>
		<g>
			<g>
				<g>
					<g opacity="0.7">
						<g>
							<path fill="#20B167" d="M20.592,199.319c0,0-2.222,1.027,0.921-1.44l2.352-2.185l1.468-1.923l1.928-1.323
								c0,0,0.371,0.196,2.208,1.959c0.918,0.881,2.204,2.153,3.992,3.989c0.889,0.923,1.908,1.982,3.077,3.197
								c1.144,1.208,2.434,2.572,3.889,4.11c0,0,0.333,0.111,0.69,0.179c0.363,0.063,0.705,0.076,0.884-0.054
								c0.104-0.391,0.168-0.632,0.273-0.79c0,0,0.061-0.069,0.168-0.191c0.506-0.707,1.121-1.567,1.827-2.556
								c0.782-1.061,1.636-2.281,2.629-3.57c3.898-5.21,9.361-12.021,15.38-18.583c6.017-6.562,12.542-12.908,18.145-17.455
								c1.349-1.187,2.722-2.181,3.933-3.116c1.226-0.917,2.329-1.742,3.286-2.458c2.001-1.328,3.418-2.188,4.04-2.438
								c0,0-0.559,0.383-1.541,1.058c-0.981,0.676-2.408,1.622-4.012,2.892c-3.288,2.454-7.57,5.902-11.688,9.646
								c-8.3,7.431-15.89,16.012-16.503,17.255c0,0,0.434-0.474,1.198-1.307c0.777-0.822,1.832-2.044,3.211-3.43
								c2.705-2.815,6.411-6.521,10.391-10.087c7.919-7.194,17.016-13.597,18.729-13.925c0,0-0.513,0.353-1.416,0.973
								c-0.922,0.601-2.158,1.557-3.652,2.713c-1.485,1.165-3.287,2.474-5.074,4.053c-1.805,1.561-3.803,3.185-5.66,4.984
								c-7.637,7.014-14.668,15.216-15.142,17.094c0,0,0.387-0.415,1.071-1.148c0.69-0.727,1.646-1.795,2.886-3.016
								c1.232-1.227,2.647-2.689,4.239-4.214c1.617-1.502,3.326-3.143,5.124-4.739c1.831-1.565,3.655-3.178,5.477-4.643
								c1.846-1.44,3.619-2.805,5.223-4.002c3.333-2.254,5.897-3.942,7.031-4.251c0,0-0.374,0.218-0.933,0.597
								c-0.55,0.391-1.299,0.924-2.094,1.489c-1.574,1.153-3.348,2.442-3.955,3.146c0.001,0,0.672-0.452,1.374-0.864
								c0.693-0.421,1.387-0.842,1.387-0.842s-0.999,0.813-1.998,1.627c-0.964,0.856-1.928,1.712-1.928,1.712l-2.452,1.733
								c0,0,1.684-1.16,3.454-2.305c0.875-0.585,1.807-1.124,2.57-1.511c0.757-0.394,1.334-0.647,1.532-0.628
								c0,0,0.592-0.716-0.183-0.247c-0.388,0.233-1.117,0.765-2.435,1.83c-1.267,1.124-3.12,2.787-5.724,5.306
								c0,0-1.108,0.868-3.139,2.615c-0.505,0.44-1.069,0.933-1.691,1.476c-0.607,0.559-1.254,1.188-1.957,1.867
								c-1.396,1.367-3.032,2.925-4.728,4.813c-0.853,0.94-1.752,1.932-2.698,2.974c-0.921,1.064-1.859,2.204-2.841,3.393
								c-0.991,1.182-1.984,2.446-2.987,3.784c-1.008,1.334-2.064,2.711-3.084,4.191c-2.076,2.935-4.205,6.134-6.292,9.626
								c-0.526,0.869-1.057,1.753-1.568,2.664c-0.311,0.535-0.624,1.074-0.939,1.616c-0.335,0.573-0.679,1.156-1.016,1.774
								c-1.363,2.437-2.841,5.173-4.425,8.232c-0.049,0.002-0.095,0.057-0.147,0.015l-0.162-0.167l-0.326-0.338l-0.665-0.689
								c-0.458-0.475-0.918-0.952-1.383-1.434c-0.983-1.021-1.98-2.057-2.991-3.106c-1.093-1.14-2.2-2.293-3.321-3.462
								c-0.333-0.355-0.479-0.479-0.698-0.69l-0.617-0.586c-0.414-0.39-0.831-0.783-1.25-1.178
								C27.909,205.854,24.345,202.61,20.592,199.319z"/>
							<path fill="none" stroke="#95DAB6" stroke-width="0.025" d="M27.722,191.423c0,0,2.212,2.345,5.81,6.16
								c1.786,1.92,3.916,4.21,6.287,6.76c0.295,0.32,0.594,0.644,0.896,0.972c0.102,0.115,0.076,0.07,0.109,0.099l0.06,0.038
								l0.117,0.071c0.153,0.091,0.294,0.165,0.421,0.222c0.252,0.1,0.452,0.187,0.58,0.088c0.088-0.395,0.142-0.723,0.139-0.951
								c-0.002-0.114-0.016-0.206-0.042-0.276l-0.011-0.025l-0.006-0.012l0.097-0.161l0.434-0.713l0.885-1.42
								c0,0,0.412-0.573,1.138-1.583c0.717-1.017,1.786-2.442,3.077-4.164c1.271-1.736,2.861-3.698,4.529-5.854
								c1.742-2.103,3.548-4.411,5.517-6.645c3.832-4.545,8.049-8.979,11.517-12.484c1.731-1.755,3.351-3.215,4.585-4.391
								c1.233-1.176,2.181-1.985,2.671-2.353c0,0,0.618-0.546,1.638-1.447c1.043-0.877,2.407-2.181,4.134-3.472
								c1.71-1.304,3.569-2.8,5.523-4.116c1.971-1.301,3.927-2.534,5.638-3.513"/>
							<path fill="none" stroke="#20B167" stroke-width="0.025" d="M57.859,183.902c-1.359,1.243-6.282,7.241-10.6,13.121
								c-1.085,1.466-2.135,2.922-3.085,4.294c-0.478,0.684-0.937,1.342-1.371,1.963c-0.378,0.561-0.998,1.473-0.823,1.226
								c-0.006,0.046-0.01,0.075-0.01,0.075c-0.017-0.001-0.009,0.048-0.026,0.207c-0.031,0.172-0.176,0.355-0.625,0.247
								l-0.042-0.011l-0.022-0.006l-0.011-0.003l-0.053-0.055l-0.423-0.443l-0.847-0.881c-0.566-0.583-1.128-1.162-1.684-1.734
								c-1.118-1.135-2.206-2.239-3.23-3.279c-4.116-4.143-7.285-7.2-7.285-7.2"/>
							<path fill="none" stroke="#20B167" stroke-width="0.025" d="M60.923,185.321c0-0.001,5.282-5.987,11.691-12.1
								c1.633-1.495,3.306-3.027,4.937-4.521c1.666-1.456,3.336-2.825,4.855-4.104c0.753-0.646,1.501-1.236,2.226-1.769
								c0.718-0.539,1.39-1.044,2.007-1.507c1.241-0.918,2.251-1.671,2.984-2.149"/>
							<path fill="none" stroke="#95DAB6" stroke-width="0.025" d="M58.796,195.084c0,0,1.483-1.697,3.739-4.278
								c1.159-1.262,2.515-2.739,3.979-4.333c1.506-1.55,3.122-3.214,4.755-4.894c1.686-1.621,3.388-3.259,5.011-4.819
								c1.678-1.493,3.273-2.914,4.687-4.172c2.892-2.432,5.099-4.144,5.729-4.559"/>
						</g>
					</g>
				</g>
			</g>
		</g>
	</g>
	<g>
		<g>
			<g>
				<g>
					<g opacity="0.7">
						<g>
							<path fill="#20B167" d="M20.592,199.319c0,0-2.222,1.027,0.921-1.44l2.352-2.185l1.468-1.923l1.928-1.323
								c0,0,0.371,0.196,2.208,1.959c0.918,0.881,2.204,2.153,3.992,3.989c0.889,0.923,1.908,1.982,3.077,3.197
								c1.144,1.208,2.434,2.572,3.889,4.11c0,0,0.333,0.111,0.69,0.179c0.363,0.063,0.705,0.076,0.884-0.054
								c0.104-0.391,0.168-0.632,0.273-0.79c0,0,0.061-0.069,0.168-0.191c0.506-0.707,1.121-1.567,1.827-2.556
								c0.782-1.061,1.636-2.281,2.629-3.57c3.898-5.21,9.361-12.021,15.38-18.583c6.017-6.562,12.542-12.908,18.145-17.455
								c1.349-1.187,2.722-2.181,3.933-3.116c1.226-0.917,2.329-1.742,3.286-2.458c2.001-1.328,3.418-2.188,4.04-2.438
								c0,0-0.559,0.383-1.541,1.058c-0.981,0.676-2.408,1.622-4.012,2.892c-3.288,2.454-7.57,5.902-11.688,9.646
								c-8.3,7.431-15.89,16.012-16.503,17.255c0,0,0.434-0.474,1.198-1.307c0.777-0.822,1.832-2.044,3.211-3.43
								c2.705-2.815,6.411-6.521,10.391-10.087c7.919-7.194,17.016-13.597,18.729-13.925c0,0-0.513,0.353-1.416,0.973
								c-0.922,0.601-2.158,1.557-3.652,2.713c-1.485,1.165-3.287,2.474-5.074,4.053c-1.805,1.561-3.803,3.185-5.66,4.984
								c-7.637,7.014-14.668,15.216-15.142,17.094c0,0,0.387-0.415,1.071-1.148c0.69-0.727,1.646-1.795,2.886-3.016
								c1.232-1.227,2.647-2.689,4.239-4.214c1.617-1.502,3.326-3.143,5.124-4.739c1.831-1.565,3.655-3.178,5.477-4.643
								c1.846-1.44,3.619-2.805,5.223-4.002c3.333-2.254,5.897-3.942,7.031-4.251c0,0-0.374,0.218-0.933,0.597
								c-0.55,0.391-1.299,0.924-2.094,1.489c-1.574,1.153-3.348,2.442-3.955,3.146c0.001,0,0.672-0.452,1.374-0.864
								c0.693-0.421,1.387-0.842,1.387-0.842s-0.999,0.813-1.998,1.627c-0.964,0.856-1.928,1.712-1.928,1.712l-2.452,1.733
								c0,0,1.684-1.16,3.454-2.305c0.875-0.585,1.807-1.124,2.57-1.511c0.757-0.394,1.334-0.647,1.532-0.628
								c0,0,0.592-0.716-0.183-0.247c-0.388,0.233-1.117,0.765-2.435,1.83c-1.267,1.124-3.12,2.787-5.724,5.306
								c0,0-1.108,0.868-3.139,2.615c-0.505,0.44-1.069,0.933-1.691,1.476c-0.607,0.559-1.254,1.188-1.957,1.867
								c-1.396,1.367-3.032,2.925-4.728,4.813c-0.853,0.94-1.752,1.932-2.698,2.974c-0.921,1.064-1.859,2.204-2.841,3.393
								c-0.991,1.182-1.984,2.446-2.987,3.784c-1.008,1.334-2.064,2.711-3.084,4.191c-2.076,2.935-4.205,6.134-6.292,9.626
								c-0.526,0.869-1.057,1.753-1.568,2.664c-0.311,0.535-0.624,1.074-0.939,1.616c-0.335,0.573-0.679,1.156-1.016,1.774
								c-1.363,2.437-2.841,5.173-4.425,8.232c-0.049,0.002-0.095,0.057-0.147,0.015l-0.162-0.167l-0.326-0.338l-0.665-0.689
								c-0.458-0.475-0.918-0.952-1.383-1.434c-0.983-1.021-1.98-2.057-2.991-3.106c-1.093-1.14-2.2-2.293-3.321-3.462
								c-0.333-0.355-0.479-0.479-0.698-0.69l-0.617-0.586c-0.414-0.39-0.831-0.783-1.25-1.178
								C27.909,205.854,24.345,202.61,20.592,199.319z"/>
							<path fill="none" stroke="#95DAB6" stroke-width="0.025" d="M27.722,191.423c0,0,2.212,2.345,5.81,6.16
								c1.786,1.92,3.916,4.21,6.287,6.76c0.295,0.32,0.594,0.644,0.896,0.972c0.102,0.115,0.076,0.07,0.109,0.099l0.06,0.038
								l0.117,0.071c0.153,0.091,0.294,0.165,0.421,0.222c0.252,0.1,0.452,0.187,0.58,0.088c0.088-0.395,0.142-0.723,0.139-0.951
								c-0.002-0.114-0.016-0.206-0.042-0.276l-0.011-0.025l-0.006-0.012l0.097-0.161l0.434-0.713l0.885-1.42
								c0,0,0.412-0.573,1.138-1.583c0.717-1.017,1.786-2.442,3.077-4.164c1.271-1.736,2.861-3.698,4.529-5.854
								c1.742-2.103,3.548-4.411,5.517-6.645c3.832-4.545,8.049-8.979,11.517-12.484c1.731-1.755,3.351-3.215,4.585-4.391
								c1.233-1.176,2.181-1.985,2.671-2.353c0,0,0.618-0.546,1.638-1.447c1.043-0.877,2.407-2.181,4.134-3.472
								c1.71-1.304,3.569-2.8,5.523-4.116c1.971-1.301,3.927-2.534,5.638-3.513"/>
							<path fill="none" stroke="#20B167" stroke-width="0.025" d="M57.859,183.902c-1.359,1.243-6.282,7.241-10.6,13.121
								c-1.085,1.466-2.135,2.922-3.085,4.294c-0.478,0.684-0.937,1.342-1.371,1.963c-0.378,0.561-0.998,1.473-0.823,1.226
								c-0.006,0.046-0.01,0.075-0.01,0.075c-0.017-0.001-0.009,0.048-0.026,0.207c-0.031,0.172-0.176,0.355-0.625,0.247
								l-0.042-0.011l-0.022-0.006l-0.011-0.003l-0.053-0.055l-0.423-0.443l-0.847-0.881c-0.566-0.583-1.128-1.162-1.684-1.734
								c-1.118-1.135-2.206-2.239-3.23-3.279c-4.116-4.143-7.285-7.2-7.285-7.2"/>
							<path fill="none" stroke="#20B167" stroke-width="0.025" d="M60.923,185.321c0-0.001,5.282-5.987,11.691-12.1
								c1.633-1.495,3.306-3.027,4.937-4.521c1.666-1.456,3.336-2.825,4.855-4.104c0.753-0.646,1.501-1.236,2.226-1.769
								c0.718-0.539,1.39-1.044,2.007-1.507c1.241-0.918,2.251-1.671,2.984-2.149"/>
							<path fill="none" stroke="#95DAB6" stroke-width="0.025" d="M58.796,195.084c0,0,1.483-1.697,3.739-4.278
								c1.159-1.262,2.515-2.739,3.979-4.333c1.506-1.55,3.122-3.214,4.755-4.894c1.686-1.621,3.388-3.259,5.011-4.819
								c1.678-1.493,3.273-2.914,4.687-4.172c2.892-2.432,5.099-4.144,5.729-4.559"/>
						</g>
					</g>
				</g>
			</g>
		</g>
	</g>
	<g>
		<g>
			<g>
				<g>
					<g opacity="0.7">
						<g>
							<path fill="#20B167" d="M20.592,199.319c0,0-2.222,1.027,0.921-1.44l2.352-2.185l1.468-1.923l1.928-1.323
								c0,0,0.371,0.196,2.208,1.959c0.918,0.881,2.204,2.153,3.992,3.989c0.889,0.923,1.908,1.982,3.077,3.197
								c1.144,1.208,2.434,2.572,3.889,4.11c0,0,0.333,0.111,0.69,0.179c0.363,0.063,0.705,0.076,0.884-0.054
								c0.104-0.391,0.168-0.632,0.273-0.79c0,0,0.061-0.069,0.168-0.191c0.506-0.707,1.121-1.567,1.827-2.556
								c0.782-1.061,1.636-2.281,2.629-3.57c3.898-5.21,9.361-12.021,15.38-18.583c6.017-6.562,12.542-12.908,18.145-17.455
								c1.349-1.187,2.722-2.181,3.933-3.116c1.226-0.917,2.329-1.742,3.286-2.458c2.001-1.328,3.418-2.188,4.04-2.438
								c0,0-0.559,0.383-1.541,1.058c-0.981,0.676-2.408,1.622-4.012,2.892c-3.288,2.454-7.57,5.902-11.688,9.646
								c-8.3,7.431-15.89,16.012-16.503,17.255c0,0,0.434-0.474,1.198-1.307c0.777-0.822,1.832-2.044,3.211-3.43
								c2.705-2.815,6.411-6.521,10.391-10.087c7.919-7.194,17.016-13.597,18.729-13.925c0,0-0.513,0.353-1.416,0.973
								c-0.922,0.601-2.158,1.557-3.652,2.713c-1.485,1.165-3.287,2.474-5.074,4.053c-1.805,1.561-3.803,3.185-5.66,4.984
								c-7.637,7.014-14.668,15.216-15.142,17.094c0,0,0.387-0.415,1.071-1.148c0.69-0.727,1.646-1.795,2.886-3.016
								c1.232-1.227,2.647-2.689,4.239-4.214c1.617-1.502,3.326-3.143,5.124-4.739c1.831-1.565,3.655-3.178,5.477-4.643
								c1.846-1.44,3.619-2.805,5.223-4.002c3.333-2.254,5.897-3.942,7.031-4.251c0,0-0.374,0.218-0.933,0.597
								c-0.55,0.391-1.299,0.924-2.094,1.489c-1.574,1.153-3.348,2.442-3.955,3.146c0.001,0,0.672-0.452,1.374-0.864
								c0.693-0.421,1.387-0.842,1.387-0.842s-0.999,0.813-1.998,1.627c-0.964,0.856-1.928,1.712-1.928,1.712l-2.452,1.733
								c0,0,1.684-1.16,3.454-2.305c0.875-0.585,1.807-1.124,2.57-1.511c0.757-0.394,1.334-0.647,1.532-0.628
								c0,0,0.592-0.716-0.183-0.247c-0.388,0.233-1.117,0.765-2.435,1.83c-1.267,1.124-3.12,2.787-5.724,5.306
								c0,0-1.108,0.868-3.139,2.615c-0.505,0.44-1.069,0.933-1.691,1.476c-0.607,0.559-1.254,1.188-1.957,1.867
								c-1.396,1.367-3.032,2.925-4.728,4.813c-0.853,0.94-1.752,1.932-2.698,2.974c-0.921,1.064-1.859,2.204-2.841,3.393
								c-0.991,1.182-1.984,2.446-2.987,3.784c-1.008,1.334-2.064,2.711-3.084,4.191c-2.076,2.935-4.205,6.134-6.292,9.626
								c-0.526,0.869-1.057,1.753-1.568,2.664c-0.311,0.535-0.624,1.074-0.939,1.616c-0.335,0.573-0.679,1.156-1.016,1.774
								c-1.363,2.437-2.841,5.173-4.425,8.232c-0.049,0.002-0.095,0.057-0.147,0.015l-0.162-0.167l-0.326-0.338l-0.665-0.689
								c-0.458-0.475-0.918-0.952-1.383-1.434c-0.983-1.021-1.98-2.057-2.991-3.106c-1.093-1.14-2.2-2.293-3.321-3.462
								c-0.333-0.355-0.479-0.479-0.698-0.69l-0.617-0.586c-0.414-0.39-0.831-0.783-1.25-1.178
								C27.909,205.854,24.345,202.61,20.592,199.319z"/>
							<path fill="none" stroke="#95DAB6" stroke-width="0.025" d="M27.722,191.423c0,0,2.212,2.345,5.81,6.16
								c1.786,1.92,3.916,4.21,6.287,6.76c0.295,0.32,0.594,0.644,0.896,0.972c0.102,0.115,0.076,0.07,0.109,0.099l0.06,0.038
								l0.117,0.071c0.153,0.091,0.294,0.165,0.421,0.222c0.252,0.1,0.452,0.187,0.58,0.088c0.088-0.395,0.142-0.723,0.139-0.951
								c-0.002-0.114-0.016-0.206-0.042-0.276l-0.011-0.025l-0.006-0.012l0.097-0.161l0.434-0.713l0.885-1.42
								c0,0,0.412-0.573,1.138-1.583c0.717-1.017,1.786-2.442,3.077-4.164c1.271-1.736,2.861-3.698,4.529-5.854
								c1.742-2.103,3.548-4.411,5.517-6.645c3.832-4.545,8.049-8.979,11.517-12.484c1.731-1.755,3.351-3.215,4.585-4.391
								c1.233-1.176,2.181-1.985,2.671-2.353c0,0,0.618-0.546,1.638-1.447c1.043-0.877,2.407-2.181,4.134-3.472
								c1.71-1.304,3.569-2.8,5.523-4.116c1.971-1.301,3.927-2.534,5.638-3.513"/>
							<path fill="none" stroke="#20B167" stroke-width="0.025" d="M57.859,183.902c-1.359,1.243-6.282,7.241-10.6,13.121
								c-1.085,1.466-2.135,2.922-3.085,4.294c-0.478,0.684-0.937,1.342-1.371,1.963c-0.378,0.561-0.998,1.473-0.823,1.226
								c-0.006,0.046-0.01,0.075-0.01,0.075c-0.017-0.001-0.009,0.048-0.026,0.207c-0.031,0.172-0.176,0.355-0.625,0.247
								l-0.042-0.011l-0.022-0.006l-0.011-0.003l-0.053-0.055l-0.423-0.443l-0.847-0.881c-0.566-0.583-1.128-1.162-1.684-1.734
								c-1.118-1.135-2.206-2.239-3.23-3.279c-4.116-4.143-7.285-7.2-7.285-7.2"/>
							<path fill="none" stroke="#20B167" stroke-width="0.025" d="M60.923,185.321c0-0.001,5.282-5.987,11.691-12.1
								c1.633-1.495,3.306-3.027,4.937-4.521c1.666-1.456,3.336-2.825,4.855-4.104c0.753-0.646,1.501-1.236,2.226-1.769
								c0.718-0.539,1.39-1.044,2.007-1.507c1.241-0.918,2.251-1.671,2.984-2.149"/>
							<path fill="none" stroke="#95DAB6" stroke-width="0.025" d="M58.796,195.084c0,0,1.483-1.697,3.739-4.278
								c1.159-1.262,2.515-2.739,3.979-4.333c1.506-1.55,3.122-3.214,4.755-4.894c1.686-1.621,3.388-3.259,5.011-4.819
								c1.678-1.493,3.273-2.914,4.687-4.172c2.892-2.432,5.099-4.144,5.729-4.559"/>
						</g>
					</g>
				</g>
			</g>
		</g>
	</g>
</g>
<g id="widget">
	<polygon fill="#54BCE8" stroke="#0C6D97" stroke-width="3" stroke-miterlimit="10" points="84.5,220.5 84.5,236.5 76.5,236.5 
		88.5,248.5 100.5,236.5 92.5,236.5 92.5,220.5 108.5,220.5 108.5,228.5 120.5,216.5 108.5,204.5 108.5,212.5 92.5,212.5 
		92.5,196.5 100.5,196.5 88.5,184.5 76.5,196.5 84.5,196.5 84.5,212.5 68.5,212.5 68.5,204.5 56.5,216.5 68.5,228.5 68.5,220.5 	"/>
</g>
</svg>
