<?xml version="1.0" encoding="utf-8"?>
<!-- Generator: Adobe Illustrator 16.0.0, SVG Export Plug-In . SVG Version: 6.00 Build 0)  -->
<!DOCTYPE svg PUBLIC "-//W3C//DTD SVG 1.1//EN" "http://www.w3.org/Graphics/SVG/1.1/DTD/svg11.dtd">
<svg version="1.1" id="Layer_1" xmlns="http://www.w3.org/2000/svg" xmlns:xlink="http://www.w3.org/1999/xlink" x="0px" y="0px"
	 width="128px" height="128px" viewBox="0 0 128 128" enable-background="new 0 0 128 128" xml:space="preserve">
<path fill="#E0C0CF" d="M108,72v26.182c0,5.422-5.373,9.818-12,9.818H32c-6.627,0-12-4.396-12-9.818V72"/>
<path fill="#E0C0CF" d="M-40,56v33.846C-40,95.454-45.373,100-52,100h-80c-6.627,0-12-4.546-12-10.154V56"/>
<path fill="#F5AECC" d="M-144,40V6.154C-144,0.546-138.627-4-132-4h80c6.627,0,12,4.546,12,10.154V40"/>
<path fill="#FAD5E5" d="M-40,40v33.846C-40,79.453-45.373,84-52,84h-80c-6.627,0-12-4.547-12-10.154V40"/>
<rect x="-144" y="38" fill="#F7F2F4" width="104" height="4"/>
<path fill="#FAD5E5" d="M108,56v26.182C108,87.604,102.627,92,96,92H32c-6.627,0-12-4.396-12-9.818V56"/>
<path fill="#F5AECC" d="M20,56V29.818C20,24.396,25.373,20,32,20h64c6.627,0,12,4.396,12,9.818V56"/>
<rect x="20" y="52" fill="#F7F2F4" width="88" height="8"/>
</svg>
