<?xml version="1.0" encoding="utf-8"?>
<!-- Generator: Adobe Illustrator 16.0.0, SVG Export Plug-In . SVG Version: 6.00 Build 0)  -->
<!DOCTYPE svg PUBLIC "-//W3C//DTD SVG 1.1//EN" "http://www.w3.org/Graphics/SVG/1.1/DTD/svg11.dtd">
<svg version="1.1" xmlns="http://www.w3.org/2000/svg" xmlns:xlink="http://www.w3.org/1999/xlink" x="0px" y="0px" width="128px"
	 height="128px" viewBox="0.5 128.5 128 128" enable-background="new 0.5 128.5 128 128" xml:space="preserve">
<g id="canvas">
	<path fill="none" stroke="#000000" stroke-miterlimit="10" d="M16.5,164.5"/>
	<path fill="#FFFFFF" stroke="#000000" stroke-miterlimit="10" d="M112.5,164.5"/>
	<path fill="none" stroke="#000000" stroke-miterlimit="10" d="M107.75,154.438"/>
	<path fill="#C0392B" d="M104.5,227.658l4-63.158h-88l4,63.158c0,8.421,17.909,16.842,40,16.842
		C86.592,244.5,104.5,236.079,104.5,227.658h-80"/>
	<defs>
		<filter id="Adobe_OpacityMaskFilter" filterUnits="userSpaceOnUse" x="16.5" y="155.359" width="96" height="25.141">
			<feColorMatrix  type="matrix" values="1 0 0 0 0  0 1 0 0 0  0 0 1 0 0  0 0 0 1 0"/>
		</filter>
	</defs>
	<mask maskUnits="userSpaceOnUse" x="16.5" y="155.359" width="96" height="25.141" id="SVGID_2_">
		<g filter="url(#Adobe_OpacityMaskFilter)">
			<path fill="#CD5257" d="M104.5,232.5l4-68h-88l4,68c0,8,17.909,16,40,16C86.592,248.5,104.5,240.5,104.5,232.5h-80"/>
		</g>
	</mask>
	<path mask="url(#SVGID_2_)" fill="#74180E" d="M108.3,155.359l4.2,13.141c0,6.627-21.49,12-48,12s-48-5.373-48-12l4.104-12.802"/>
	<g id="Layer_3">
		<path fill="#D98880" d="M108.3,151.359l4.2,13.141c0,6.627-21.49,12-48,12s-48-5.373-48-12l4.104-12.802"/>
		<ellipse fill="#74180E" cx="64.5" cy="152.5" rx="44" ry="12"/>
	</g>
	<g id="Layer_4">
		<g>
			<g>
				<g>
					<g>
						<defs>
							<ellipse id="SVGID_1_" cx="64.5" cy="152.5" rx="44" ry="12"/>
						</defs>
						<clipPath id="SVGID_3_">
							<use xlink:href="#SVGID_1_"  overflow="visible"/>
						</clipPath>
						<path clip-path="url(#SVGID_3_)" fill="#CCCCCC" d="M36.5,164.5c4-12,20-16,20-16l12,8c0,0-4,8-4,12"/>
					</g>
				</g>
			</g>
			<g>
				<g>
					<g>
						<defs>
							<ellipse id="SVGID_4_" cx="64.5" cy="152.5" rx="44" ry="12"/>
						</defs>
						<clipPath id="SVGID_5_">
							<use xlink:href="#SVGID_4_"  overflow="visible"/>
						</clipPath>
						<path clip-path="url(#SVGID_5_)" fill="#E6E6E6" d="M28.5,164.5c0-12,8-16,8-16l8,4c0,0-4,16,8,16"/>
					</g>
				</g>
			</g>
			<g>
				<g>
					<g>
						<defs>
							<ellipse id="SVGID_6_" cx="64.5" cy="152.5" rx="44" ry="12"/>
						</defs>
						<clipPath id="SVGID_7_">
							<use xlink:href="#SVGID_6_"  overflow="visible"/>
						</clipPath>
						<path clip-path="url(#SVGID_7_)" fill="#F2F2F2" d="M84.5,164.5c0-12-12-20-12-20l-12,4c0,0,4,16,0,20"/>
					</g>
				</g>
			</g>
			<g>
				<g>
					<g>
						<defs>
							<ellipse id="SVGID_8_" cx="64.5" cy="152.5" rx="44" ry="12"/>
						</defs>
						<clipPath id="SVGID_9_">
							<use xlink:href="#SVGID_8_"  overflow="visible"/>
						</clipPath>
						<path clip-path="url(#SVGID_9_)" fill="#E6E6E6" d="M80.5,168.5c0-12,8-20,8-20l12,8c0,0-4,12,0,12"/>
					</g>
				</g>
			</g>
		</g>
	</g>
</g>
<g id="widget">
</g>
</svg>
